<?xml version="1.0" encoding="utf-8"?>
<!-- Generator: Adobe Illustrator 23.0.5, SVG Export Plug-In . SVG Version: 6.00 Build 0)  -->
<svg version="1.1" id="Capa_1" xmlns="http://www.w3.org/2000/svg" xmlns:xlink="http://www.w3.org/1999/xlink" x="0px" y="0px"
	 viewBox="0 0 635.7 595.6" style="enable-background:new 0 0 635.7 595.6;" xml:space="preserve">
<style type="text/css">
	.st0{fill:#ECC39E;}
	.st1{fill:url(#SVGID_1_);}
	.st2{fill:url(#SVGID_2_);}
	.st3{fill:#444444;}
	.st4{fill:#2D4659;}
	.st5{fill:#706347;stroke:#4C4A38;stroke-width:0.6361;stroke-miterlimit:10;}
	.st6{fill:#EBBE97;}
	.st7{fill:#B8A67F;}
	.st8{fill:#335A7C;}
	.st9{fill:#4F4F4F;}
	.st10{fill:#3A3A3A;}
	.st11{fill:#ADADAD;}
	.st12{fill:#545454;}
	.st13{fill:none;}
	.st14{fill:#5698E3;}
	.st15{fill:#DAA589;}
	.st16{fill:#FFFFFF;}
	.st17{fill:none;stroke:#DAA589;stroke-width:1.2721;stroke-miterlimit:10;}
	.st18{fill:#889FAB;}
	.st19{fill:#1F2730;}
	.st20{fill:#3F3F3F;}
	.st21{fill:#DFBD9E;}
	.st22{fill:none;stroke:#FFFFFF;stroke-width:1.2721;stroke-miterlimit:10;}
	.st23{fill:url(#SVGID_3_);}
	.st24{filter:url(#Adobe_OpacityMaskFilter);}
	.st25{mask:url(#SVGID_4_);fill:url(#SVGID_5_);}
	.st26{opacity:0.47;fill:#DA0100;}
	.st27{fill:#C4142A;}
	.st28{fill:#DB2737;}
	.st29{fill:#383838;}
	.st30{fill:#E3B58E;}
	.st31{fill:#E6E6E6;}
	.st32{fill:#BAA871;}
	.st33{fill:#A29570;}
</style>
<title>header-teamwork</title>
<g>
	<g>
		<path class="st0" d="M174.7,378.1c0,0,3.6,7.7,5.3,6.8c1.7-0.9,4.3-1.7,1.7-10.3C179.1,366,174.7,378.1,174.7,378.1z"/>
		<path class="st0" d="M173.1,384.9c0,0,0,5.2,2.6,7.7c2.6,2.6,0.9,5.2-2.6,4.3c-3.4-0.9-18.1-8.6-18.9-11.2
			C153.4,383.2,173.1,384.9,173.1,384.9z"/>
		<linearGradient id="SVGID_1_" gradientUnits="userSpaceOnUse" x1="231.3926" y1="452.1104" x2="231.3926" y2="579.2701">
			<stop  offset="0" style="stop-color:#ECC39E"/>
			<stop  offset="0.8676" style="stop-color:#ECC39E"/>
			<stop  offset="1" style="stop-color:#ECC39E;stop-opacity:0"/>
		</linearGradient>
		<path class="st1" d="M250.5,461.7C250.3,484.6,229,576,229,576s-19.8,7.9-16.3-6.1c0.5-2,0.9-4.6,1.3-7.6v0c0,0,0,0,0,0
			c1.1-7.6,1.9-17.9,2.5-27.2c0.9-13,1.3-24.2,1.3-24.2c-1.1-1.7-1.8-3.7-1.9-5.8l-2.4-48.7c0,0,0.3-0.1,0.8-0.4
			C219.7,453.7,250.7,440.8,250.5,461.7z"/>
		<linearGradient id="SVGID_2_" gradientUnits="userSpaceOnUse" x1="306.4925" y1="452.1104" x2="306.4925" y2="579.2701">
			<stop  offset="0" style="stop-color:#ECC39E"/>
			<stop  offset="0.8176" style="stop-color:#ECC39E"/>
			<stop  offset="0.9926" style="stop-color:#ECC39E;stop-opacity:0"/>
		</linearGradient>
		<path class="st2" d="M308.1,576.6l-12.6,4.4c-1.8-1.4-3.6-3.7-3.8-8.5c0,0,0,0,0,0c-0.1-1.3,0-2.7,0.2-4.4
			c1.1-9.2,3.9-30.4,4.6-41c0-0.2,0-0.4,0-0.5c0-1.7-0.5-3.4-1.5-4.9c-2.6-4.1-4-8.8-4-13.6l-0.2-36.8c0-1,0.4-1.9,1.1-2.6
			c0.1-0.1,0.2-0.2,0.3-0.3c5.7-5.5,26.8-26.2,29.7-0.4C325,495.2,310.7,562.8,308.1,576.6z"/>
		<path class="st3" d="M324.5,464c-2.6,15.5-37.8,7.7-37,1.7l-4.2-67.2c0-0.8-0.8-1.2-1.5-0.9l-20.4,8.5c-1.9,0.8-3.1,2.6-3.2,4.6
			c-0.4,11.1-1.7,46.2-2.5,49.1c-0.9,3.4-22.4,18.9-43.8-3.4l0.9-98l2.5-0.1l102.4-4.2c0,0,4.2,42.2,6.3,74.9c0,0.1,0,0.2,0,0.3
			C324.8,445.2,325.3,458.9,324.5,464z"/>
		<path class="st4" d="M345.9,211.2c0.9,0.9-1.8,6.9-5.1,14.2s-9.9,13.9-11.2,13.3s1.2-8.4,5.2-15.5
			C339.1,215.5,344.9,210.2,345.9,211.2z"/>
		<path class="st4" d="M180,258.5c-0.4,1.4-6.9,0.7-14.5-1.4s-15.4-6.7-14.8-8c0.9-1.7,8.6,0.7,16.2,2.8
			C174.6,254,180.4,257.1,180,258.5z"/>
		<path class="st5" d="M195.7,76.2"/>
		<path class="st0" d="M287.5,117.3l-7.6,16.4c-1.9,4.2-5.2,7.4-9,9.4c-3.1,1.6-6.7,2.5-10.3,2.3c-1.7-0.1-3.3-0.3-5-0.8l-14.4-4.3
			v0l-10.7-3.2l-0.5-0.1l-6-1.8c-1.9-0.6-3.5-2-4.3-3.8l-12.7-28.1c-5.3-0.4-14.4-13.8-14.4-18.9c0-3.4,1.1-6.4,3.2-8
			c1.2-0.9,2.7-1.4,4.5-1.4c5.1,0,14.2,5.8,16.2,14.9L217,89l4.3-8.6c2.6-7.7-6-29.2-4.3-28.4c1.1,0.6,5,1.9,13,2.5
			c4,0.3,9.1,0.4,15.3,0.1c18.9-0.9,37-9.5,37-9.5c0,2.6-2.6,5.2-2.6,5.2c3.4,0.9,11.2-4.3,11.2-4.3l0.5,17.2l0.9,30.8
			C292.5,102,290.9,110,287.5,117.3z"/>
		<path class="st6" d="M287.5,117.3l-7.6,16.4c-1.9,4.2-5.2,7.4-9,9.4c-3.1,1.6-6.7,2.5-10.3,2.3c-1.7-0.1-3.3-0.3-5-0.8l-14.4-4.3
			v0l-10.7-3.2l-0.5-0.1c-1.6-2.6-12.3-23.1,0.1-82.3c4,0.3,9.1,0.4,15.3,0.1c18.9-0.9,37-9.5,37-9.5c0,2.6-2.6,5.2-2.6,5.2
			c3.4,0.9,11.2-4.3,11.2-4.3l0.5,17.2l0.9,30.8C292.5,102,290.9,110,287.5,117.3z"/>
		<path class="st7" d="M302.9,34c0,0,0,20.6-10.3,28.4c-0.3,0.3-0.8,0.5-1.2,0.8l-0.3-10.3l-0.2-6.8c0,0-7.7,5.2-11.2,4.3
			c0,0,2.6-2.6,2.6-5.2c0,0-18.1,8.6-37,9.5c-18.9,0.9-26.7-1.7-28.4-2.6c-1.7-0.9,6.9,20.6,4.3,28.4L217,89l-0.6,0.7
			c-2-9.1-11.1-14.9-16.2-14.9c-1.8,0-3.3,0.5-4.5,1.4l-0.2-0.1c0,0-6-20.6-6-22.4c0,0,1.7,1.7,1.7,0.9l-1.7-2.6
			c0,0,0.6-1.9,1.7-4.5c1.4-3.4,3.6-8.1,6-11c1-1.2,2.2-2.3,3.3-3.2h0c3.2-2.5,6.5-4,7.5-4.4c0.2-0.1,0.3-0.1,0.3-0.1
			s7.7-13.8,28.4-10.3c0,0,28.8,4.2,50.8-0.4c0,0,0,0,0,0c0,0,0,0,0,0c4.3-0.9,8.4-2.2,11.9-3.9c0,0-6,18.9-7.7,20.6
			C291.8,34.8,300.4,36.6,302.9,34z"/>
		<path class="st0" d="M178.1,247.8c-4.5,12-25.4,69.8-15,96.7l-0.1,1.3l-0.1,0.6c-0.4,4-6,6-9.9,3.6l-4.7-2.1
			c0,0-12.1-61.3,11.4-104.2c0.8-1.5,2.5-2.6,4.5-2.9c0.9-0.1,1.9-0.2,2.8-0.2c3.7,0,7.4,1.2,10.1,3.4c0.5,0.4,0.8,0.9,1.1,1.4
			c0.2,0.4,0.3,0.9,0.3,1.4C178.3,247.1,178.2,247.4,178.1,247.8z"/>
		<path class="st0" d="M341.9,210.1c4.3,1.1,17.4,9.3,28.6,17.6c1.2,0.9,2.9,0.9,4.1-0.1c5.8-5,22.9-20,30.7-29.2
			c9.5-11.2,21.5,0,13.8,8.6c-6.4,7.2-31.9,36.9-40.3,46.7c-1.8,2.1-4.5,3.1-7.2,2.5c-6.1-1.2-25.4-10.9-44.2-21.8
			c-1.8-1-3-2.8-3.4-4.8l-0.2-0.9c-1.1-5.9,3.1-11.1,8-14.6l4-2.8C337.5,210,339.7,209.6,341.9,210.1z"/>
		<path class="st0" d="M265.1,167.4c0,0-8.6,15.5-12.9,18.1c-4.3,2.6-26.7-15.5-26.7-15.5s4.4-19.4,4.8-32.4c0-0.2,0-0.4,0-0.6
			l10.7,3.2v0l14.4,4.3c1.7,0.5,3.3,0.8,5,0.8c0.3,3.7,0.8,8.1,1.4,11.7c0.3,1.9,0.7,3.7,1.2,5.4c0.5,1.6,1,3.1,1.6,4.2
			C264.9,167,265,167.2,265.1,167.4z"/>
		<path class="st8" d="M329.6,238.7c0,0-5.5-1.5-11.6-3.2c0,0,0,0,0,0c-5.1-1.4-10.6-2.9-13.4-3.7c0,0,14.6,111.8,12.9,122.1
			c-0.1,0.8-0.9,1.6-2.2,2.2c-13.8,6.9-86.8,4.9-100.5,2.7c-1.3-0.2-2.1-0.4-2.2-0.6c-1.7-2.6-0.9-100.6-11.2-120.4
			c0,0-18.1,14.6-21.5,20.6c0,0-0.2-0.1-0.6-0.4c-0.8-0.4-2.3-1.2-4.2-2.2c-0.4-0.2-0.8-0.4-1.2-0.6c-5.9-2.8-15.2-6.3-23.1-6.3
			l24.9-50.7c0,0,5.2-7.7,9.5-10.3c4.3-2.6,30.1-16.3,40.4-18.1c0,0,22.3,18.1,26.7,15.5c4.3-2.6,12.9-18.1,12.9-18.1
			c-0.1-0.2-0.2-0.4-0.4-0.6c0,0,0,0,0.1,0c2.5-0.1,4.9,0.3,7.2,1.2c11,4.6,23.9,7.8,31.8,11.5c11.2,5.2,42.1,31.8,42.1,31.8
			S328.7,232.7,329.6,238.7z"/>
		<path class="st9" d="M211.8,456.3"/>
		<path class="st10" d="M173.1,380.6c0.7,2.7,0.5,3.1,1.3,4.4c0.3,0.5,0.1,1.1-0.3,1.4c-2,1.5-8.2,4.8-18.5,0.8
			c-0.9-0.3-1.7-0.9-2.4-1.5l-6.5-6.5c-1.3-1.3-1.8-3.1-1.4-4.9l2.4-11.2c0.3-1.4,0.4-2.8,0.3-4.3c-0.2-2.3-0.4-6.4,0.2-10.9
			c0,0,3.8-3,13.5-3.4c0.4,0,0.9,0,1.3,0c0.2,0,0.4,0,0.6,0l2.9,6.6c0.3,0.8,0.8,1.5,1.5,2c1.6,1.5,4.9,4.3,7.9,5.5
			c1,0.4,1.8,1.1,2.3,2.1l2.4,4.8c1.3,2.6,1.9,5.4,1.9,8.2v1.7C182.6,375.5,172.3,377.2,173.1,380.6z"/>
		<path class="st11" d="M482.6,150.6v1.6c0,0.1,0,0.2,0,0.3c-0.1,0.4-0.3,0.9-0.6,1.2l-26.7,26.6l-4.2,4.2l-6.4,6.4
			c-0.6,0.6-1.4,0.8-2.2,0.5l-3.8-1.2l-19.2-6c-0.9-0.3-1.5-1.1-1.5-1.9h0v-1.7c0,0.1,0,0.2,0,0.4c0,0.1,0,0.2,0.1,0.2
			c0,0.1,0,0.1,0.1,0.2c0.1-0.3,0.3-0.5,0.5-0.7l0.3-0.3l1.1-1.1l0.3-0.2c2.9-2.1,4.8-3.9,4.8-3.9c1.7,0,6-1.7,6-1.7
			c-0.9-0.9-0.9-4.3-0.9-4.3l-0.2,0l25.8-25.8c0.6-0.6,1.4-0.8,2.2-0.5l23,7.2c0.4,0.1,0.7,0.3,1,0.6c0.2,0.2,0.3,0.4,0.4,0.7
			c0,0,0-0.1,0-0.1c0,0,0-0.1,0-0.1C482.6,150.9,482.6,150.7,482.6,150.6z"/>
		<path class="st12" d="M501.4,141.2v0.4l0,0C501.3,141.5,501.4,141.3,501.4,141.2z"/>
		<path class="st12" d="M482.6,150.6c0,0.2,0,0.4-0.1,0.6c0,0,0,0.1,0,0.1c0,0,0,0.1,0,0.1c0,0,0,0,0,0c-0.1,0.3-0.2,0.5-0.5,0.8
			l-28.3,28.2l-5.9,5.9l-3.1,3.1c-0.6,0.6-1.4,0.8-2.2,0.5l-1.8-0.6l-21.3-6.7c-0.4-0.1-0.8-0.4-1-0.7c-0.1-0.2-0.2-0.4-0.3-0.6
			c0-0.1,0-0.1-0.1-0.2c0-0.1,0-0.2-0.1-0.2c0-0.1,0-0.3,0-0.4v-0.1c0,0,0-0.1,0-0.1h0.2l1.8-1.1l0.3-0.2c2.9-2.1,4.8-3.9,4.8-3.9
			c1.7,0,6-1.7,6-1.7c-0.9-0.9-0.9-4.3-0.9-4.3l-0.2,0l-2.1,0.5l13.8-13.8l14.1-14.1c0.6-0.6,1.4-0.8,2.2-0.5l1,0.3l22,6.9
			c0.9,0.3,1.4,1,1.5,1.9C482.6,150.4,482.6,150.5,482.6,150.6z"/>
		<path class="st11" d="M418,180.4C418,180.5,418,180.5,418,180.4L418,180.4L418,180.4z"/>
		<path class="st0" d="M432.8,174.3c0,0,6.7,0,6.6-1.6c-0.1-1.6-0.1-4.5-7.4-4.5C425.9,168.2,432.8,174.3,432.8,174.3z"/>
		<path class="st10" d="M419.5,184.2c-0.9-0.3-1.5-1.1-1.5-1.9h0v-1.8c0-0.1,0-0.1,0-0.1h0.2l1.8-1.1l0.3-0.2
			c2.9-2.1,4.8-3.1,4.8-3.1c1.7,0,7.7-1.7,7.7-1.7c-0.9-0.9-2.6-6-2.6-6l-0.2,0l-2.1,0.5l-6.2,2.3c-0.9,0.3-4.3,2.5-5,3.1
			c-1.3,1.1-2.8,2.4-2.7,3.8l-1.9,10.9c0,0-0.7,2.3-6,8.4c0,0,1.8,7,12.1,10.5c0,0,8.5-9.5,11.1-12c0,0,2.6-1.7,6.9-4.3
			c0.7-0.4,6,0.4,6.9,0L419.5,184.2z"/>
		<line class="st13" x1="418" y1="180.3" x2="414.7" y2="180.3"/>
		<path class="st14" d="M482.9,107.4L445,144.6c-0.7,0.7-1.8,1-2.7,0.7l-25-7.6c-0.8-0.2-1.1-1.3-0.5-1.9l37.7-37.1
			c0.8-0.8,1.9-1.1,3-0.7l24.8,7.5C483.2,105.8,483.5,106.8,482.9,107.4z"/>
		<path class="st0" d="M151.5,378.6c0,0-2.1,0-3.1-1.2c-0.7-0.9-0.2-2.3,0.9-2.6c3.4-1,12.6-3.9,16.8-7.4c0.9-0.8,3.6,3.6,2.6,4.3
			C162.7,376,151.5,378.6,151.5,378.6z"/>
		<path class="st15" d="M204.4,93.9c-1.1-1-4.9-5.1-3.5-10.6c0-0.2,0.3-0.3,0.5-0.3l0.9,0.3c0.2,0.1,0.3,0.3,0.2,0.4
			c-1.1,4.5,2.1,7.9,3,8.8c0.1,0.1,0.2,0.4,0,0.5l-0.6,0.8C204.8,94,204.5,94,204.4,93.9z"/>
		<path class="st15" d="M206.8,86.6c-2.7-5.7-7.5-4.8-8.8-4.5c-0.2,0.1-0.4,0-0.4-0.2l-0.3-0.9c-0.1-0.2,0-0.4,0.2-0.5
			c1.6-0.4,7.6-1.5,10.9,5.4c0.1,0.2,0,0.4-0.2,0.5l-0.9,0.4C207.1,86.9,206.9,86.8,206.8,86.6z"/>
		<path class="st7" d="M232.2,71.7c2.5-2.1,8.5-6.3,17.4-5.7c0.2,0,0.4,0.1,0.5,0.2c0.5,0.4,1.4,1.4,1.5,3.8c0,0.2-0.1,0.3-0.3,0.3
			c-1.6,0-10,0.2-18.7,2.2C232.2,72.5,231.9,72,232.2,71.7z"/>
		<path class="st7" d="M285.8,69.9c-2.1-1.5-7.1-4.5-14.2-3.5c-0.1,0-0.3,0.1-0.4,0.2c-0.3,0.3-1,1.2-0.9,3.1c0,0.1,0.1,0.2,0.2,0.2
			c1.3-0.1,7.9-0.4,15,0.6C285.9,70.6,286.1,70.1,285.8,69.9z"/>
		<path class="st16" d="M233.6,111.5c0,0,21.5,6.9,36.1,3.4c0,0-1.7,5.2-5.2,14.6C264.5,129.6,241.3,125.3,233.6,111.5z"/>
		<path class="st17" d="M264,74.4c0,0,0,21.5,4.3,27.5s-7.7,4.3-9.5,3.4c-1.7-0.9-4.3-2.6-4.3-2.6"/>
		<path class="st16" d="M234,83.6l-1.8-3.8c-0.3-0.7-0.1-1.6,0.6-2c2.8-1.4,10.7-4.3,17.2-1.5c0.3,0.1,0.4,0.4,0.5,0.7l0.7,5.6
			c0.1,1.1-0.6,2.1-1.7,2.2c-2,0.2-6.9,0.3-14.1-0.2C234.8,84.5,234.3,84.2,234,83.6z"/>
		<circle class="st18" cx="241.8" cy="80.3" r="4.2"/>
		<path class="st19" d="M243.9,80.3c0,1.2-1,2.1-2.1,2.1c-1.1,0-1.9-0.8-2.1-1.8c0-0.1,0-0.2,0-0.3c0-1,0.8-1.9,1.8-2.1
			c0.1,0,0.2,0,0.4,0C242.9,78.2,243.9,79.1,243.9,80.3z"/>
		<path class="st20" d="M240.5,77.1"/>
		<path class="st16" d="M240.9,79.4c-0.5,0.3-1.2,1.2-1.2,1.2h0c0-0.1,0-0.2,0-0.3c0-1,0.8-1.9,1.8-2.1
			C241.9,78.3,241.4,79.2,240.9,79.4z"/>
		<path class="st16" d="M284.8,83.1l1.5-3.8c0.3-0.7,0.1-1.6-0.5-2c-2.4-1.4-9.2-4.3-14.9-1.5c-0.2,0.1-0.4,0.4-0.4,0.7l-0.6,5.6
			c-0.1,1.1,0.5,2.1,1.5,2.2c1.7,0.2,5.9,0.3,12.2-0.2C284.1,84,284.6,83.6,284.8,83.1z"/>
		<circle class="st18" cx="278.1" cy="79.8" r="4.2"/>
		<path class="st19" d="M280.2,79.8c0,1.2-1,2.1-2.1,2.1c-1.1,0-1.9-0.8-2.1-1.8c0-0.1,0-0.2,0-0.3c0-1,0.8-1.9,1.8-2.1
			c0.1,0,0.2,0,0.4,0C279.3,77.7,280.2,78.6,280.2,79.8z"/>
		<path class="st16" d="M277.2,78.9c-0.5,0.3-1.2,1.2-1.2,1.2h0c0-0.1,0-0.2,0-0.3c0-1,0.8-1.9,1.8-2.1
			C278.3,77.8,277.7,78.7,277.2,78.9z"/>
		<path class="st21" d="M263.2,162.5c-24-5-31.5-21.6-32.8-24.9c0-0.2,0-0.4,0-0.6l10.7,3.2v0l14.4,4.3c1.7,0.5,3.3,0.8,5,0.8
			c0.3,3.7,0.8,8.1,1.4,11.7C262.3,159,262.7,160.8,263.2,162.5z"/>
		<line class="st22" x1="428.1" y1="141.8" x2="469.1" y2="100.9"/>
		<path class="st22" d="M453.5,99.8c9.9,30.4-4.9,41.3-4.9,41.3l-28.2-8.7"/>
		<polyline class="st22" points="427.5,125.1 441,128.9 448.3,131.1 		"/>
		<line class="st22" x1="434.3" y1="118.7" x2="447.6" y2="122.4"/>
		<polyline class="st22" points="423.2,133.2 437,119.4 458.4,98.1 		"/>
		<line class="st22" x1="465.9" y1="104.1" x2="481.2" y2="109.1"/>
		<line class="st22" x1="461" y1="109" x2="476.4" y2="113.8"/>
		<path class="st22" d="M465.5,118.5"/>
		<line class="st22" x1="443.2" y1="113.2" x2="453.6" y2="116.4"/>
		<polyline class="st22" points="472,112.4 464.5,119.8 469.1,121.3 		"/>
		<path class="st14" d="M521.3,141.7c0,0.1,0,0.2,0,0.2L521.3,141.7L521.3,141.7z"/>
		<linearGradient id="SVGID_3_" gradientUnits="userSpaceOnUse" x1="449.8517" y1="452.1104" x2="449.8517" y2="579.2701">
			<stop  offset="0" style="stop-color:#8FFFFF"/>
			<stop  offset="0.1694" style="stop-color:#8AF6FB"/>
			<stop  offset="0.4512" style="stop-color:#7CDCF1"/>
			<stop  offset="0.8082" style="stop-color:#65B3DF"/>
			<stop  offset="1" style="stop-color:#579AD5"/>
		</linearGradient>
		<path class="st23" d="M459,141.6l23.8-23.4c0.3-0.3,0.4-0.6,0.3-0.9v-10.5c0,0.2-0.1,0.5-0.3,0.7L445,144.6
			c-0.7,0.7-1.8,1-2.7,0.7l-25-7.6c-0.5-0.2-0.8-0.6-0.8-1.1v10.9l0,0c0.1,0.4,0.3,0.8,0.8,0.9l25.2,7.9c0.6,0.2,1.3,0,1.8-0.4
			L459,141.6z"/>
		<defs>
			<filter id="Adobe_OpacityMaskFilter" filterUnits="userSpaceOnUse" x="416.5" y="106.7" width="66.7" height="49.7">
				<feColorMatrix  type="matrix" values="1 0 0 0 0  0 1 0 0 0  0 0 1 0 0  0 0 0 1 0"/>
			</filter>
		</defs>
		<mask maskUnits="userSpaceOnUse" x="416.5" y="106.7" width="66.7" height="49.7" id="SVGID_4_">
			<g class="st24">
			</g>
		</mask>
		<linearGradient id="SVGID_5_" gradientUnits="userSpaceOnUse" x1="449.8517" y1="452.1104" x2="449.8517" y2="579.2701">
			<stop  offset="0" style="stop-color:#FFFFFF"/>
			<stop  offset="1" style="stop-color:#000000"/>
		</linearGradient>
		<path class="st25" d="M459,141.6l23.8-23.4c0.3-0.3,0.4-0.6,0.3-0.9v-10.5c0,0.2-0.1,0.5-0.3,0.7L445,144.6
			c-0.7,0.7-1.8,1-2.7,0.7l-25-7.6c-0.5-0.2-0.8-0.6-0.8-1.1v10.9l0,0c0.1,0.4,0.3,0.8,0.8,0.9l25.2,7.9c0.6,0.2,1.3,0,1.8-0.4
			L459,141.6z"/>
		<ellipse class="st26" cx="437.5" cy="125.4" rx="7.5" ry="4.4"/>
		<g>
			<path class="st27" d="M437.5,83v-9c-9.9,0-17.9,8-17.9,17.9c0,8.1,12,26.7,16.4,33.2c0.4,0.6,1,0.8,1.6,0.8v-25.1c-5,0-9-4-9-9
				C428.6,87,432.6,83,437.5,83z"/>
			<path class="st28" d="M455.5,92c0,8.1-12,26.7-16.4,33.2c-0.4,0.6-1,0.8-1.6,0.8v-25.1c5,0,9-4,9-9c0-5-4-9-9-9v-9
				C447.4,74,455.5,82.1,455.5,92z"/>
		</g>
		<path class="st4" d="M231,357.4c-3.2-0.1-12.8-0.4-15.1-2.7c0,0-0.5,1.3-0.9,3.5c0,0,0,0,0,0.1c0,0.1,0,0.1,0,0.2
			c0,0.2-0.1,0.3-0.2,0.5c-0.1,0-0.2,0-0.2,0c-1.2-0.2-1.8-0.4-2-0.6c-1.7-2.6-0.9-100.6-11.2-120.4c0,0-18.1,14.6-21.5,20.6
			c0,0-0.2-0.1-0.6-0.4c1.8-4.2,6.2-10.6,15.8-20.3c0,0,10.7-10.7,7.7-26.7c2.3,11,16.1,79.8,11.8,126c0,0-2,13.4,21.5,14.1
			c23.5,0.7,33.6,1.3,33.6,1.3h-41.6c0,0-13-1.3-14.1-5.8C214.3,348.3,216.6,356.9,231,357.4z"/>
		<path class="st4" d="M304.7,231.9c0,0,14.6,111.8,12.9,122.1c-0.1,0.8-0.9,1.6-2.2,2.2c0,0-6.7-52.5-18.8-144.5
			c0.2,1,3.3,16.4,21.5,23.8C312.9,234.2,307.4,232.7,304.7,231.9z"/>
		<path class="st29" d="M324.5,464c-1.6,9.7-16.2,10.3-26.5,7.9c-2.6-0.6-5-1.4-6.8-2.3c-2.4-1.2-3.8-2.5-3.6-3.8l-4.2-67.2
			c0-0.8-0.8-1.2-1.5-0.9l-20.4,8.5c-1.9,0.8-3.1,2.6-3.2,4.6c-0.4,11.1-1.7,46.2-2.5,49.1c-0.8,3.2-19,16.5-38.6,1.3v0
			c-1.1-0.9-2.3-1.9-3.5-3c-0.6-0.6-1.2-1.2-1.8-1.8l0.9-98c0.1,0.2,0.8,0.4,2,0.6c0.1,3.9,2.5,92.2,4.3,95.7
			c1.8,3.6,27.3,8.3,36-3.8c0,0,0,8.1,2-47.7l34.4-13.4c0.3-0.1,0.6,0.3,0.3,0.5l-7.3,5.7c-0.2,0.2-0.1,0.6,0.2,0.5
			c0.6,0,1.5-0.2,2.7-1c0.1-0.1,0.2,0.1,0.1,0.1l-1.6,2.1c0,0,3.4,60.4,4.7,63.1c1.3,2.7,16.1,14.1,31.6,3.4c0,0,3.3-6.1,1.8-35
			C324.8,445.2,325.3,458.9,324.5,464z"/>
		<path class="st30" d="M216.5,535.1c0.9-13,1.3-24.2,1.3-24.2c-1.1-1.7-1.8-3.7-1.9-5.8l-2.3-47.1c1.2,1.1,2.3,2.1,3.5,3v0
			c0,0-0.4,38,0.2,41.4c0.7,3.4,3.4,4.7,3.4,6s-2.6,34.5-6.7,53.8C215.1,554.6,215.9,544.4,216.5,535.1z"/>
		<path class="st30" d="M299.9,519.2c0,3.7-5.1,34.5-8.3,53.3c-0.1-1.3,0-2.7,0.2-4.4c1.1-9.2,3.9-30.4,4.6-41c0-0.2,0-0.4,0-0.5
			c0-1.7-0.5-3.4-1.5-4.9c-2.6-4.1-4-8.8-4-13.6l-0.2-36.8c0-0.6,0.1-1.2,0.4-1.7c1.8,0.9,4.2,1.7,6.8,2.3c0,0.6-2,31.2-1.4,35.2
			C297.2,511.1,299.9,513.8,299.9,519.2z"/>
		<path class="st30" d="M163.1,344.5L163.1,344.5c-0.5,0-0.9,0-1.3,0l0,0c0,0-14-18.3,12.2-89.1v0c0.4,0.2,0.8,0.4,1.2,0.6
			C168,276.3,154.2,321.6,163.1,344.5z"/>
		<g>
			<g>
				<g>
					<g>
						<g>
							<path class="st31" d="M245.5,233.8c0-0.9,0-1.7-0.1-2.6c-2.8,0.1-5.1,2.4-5.1,5.2c0,2.3,3.7,7.6,5,9.4
								c0.1,0.2,0.3,0.2,0.5,0.2c-0.1-2.4-0.1-4.8-0.2-7.2c-1.5,0-2.7-1.1-2.7-2.5C243,235,244.1,233.9,245.5,233.8z"/>
							<path class="st16" d="M250.8,236.2c0.1,2.3-3.2,7.8-4.5,9.6c-0.1,0.2-0.3,0.2-0.5,0.2c-0.1-2.4-0.1-4.8-0.2-7.2
								c1.5,0,2.6-1.2,2.5-2.6c-0.1-1.4-1.3-2.5-2.7-2.5c0-0.9,0-1.7-0.1-2.6C248.3,231.2,250.7,233.4,250.8,236.2z"/>
						</g>
						<path class="st16" d="M253,245.9c-1.2,0.1-2.4,0.1-3.5,0.1c-0.5-0.7-1-1.4-1.4-2.1c0.5-0.9,1.1-1.9,1.6-2.9
							C250.8,242.6,251.9,244.3,253,245.9z"/>
					</g>
					<g>
						<path class="st16" d="M230,246.2c-2.1,0-4.2-0.1-6.3-0.2c0.1-5,0.3-9.9,0.5-14.9c2,0.1,4,0.1,6.1,0.2c4.1,0.1,7.3,3.4,7.4,7.5
							C237.7,242.9,234.3,246.2,230,246.2z M234.3,238.8c0-2.4-1.7-4.8-4.2-4.9c-0.9,0-1.9,0-2.8-0.1c-0.1,3.2-0.2,6.4-0.2,9.6
							c1,0,1.9,0,2.9,0.1C232.6,243.5,234.3,241.2,234.3,238.8z"/>
						<path class="st16" d="M266,242.3c-2,0.2-4.1,0.3-6.1,0.4c-0.3,1-0.6,1.9-1,2.9c-1.1,0.1-2.2,0.1-3.3,0.2
							c1.5-4.3,3-8.5,4.4-12.8c0.5-1.5,1.8-2.5,3.3-2.6c0,0,0,0,0,0c2.4,4.8,4.8,9.6,7.3,14.4c-1.1,0.1-2.2,0.2-3.3,0.3
							C266.9,244.1,266.4,243.2,266,242.3z M264.7,239.7c-0.8-1.5-1.5-3-2.3-4.6c-0.5,1.6-1.1,3.2-1.6,4.9
							C262.1,239.9,263.4,239.8,264.7,239.7z"/>
						<path class="st16" d="M273.4,244.4c-0.5-4.9-1-9.9-1.5-14.8c1.1-0.1,2.1-0.2,3.2-0.3c0.5,4.9,1.1,9.9,1.7,14.8
							C275.6,244.2,274.5,244.3,273.4,244.4z"/>
					</g>
				</g>
				<g>
					<path class="st16" d="M288.4,231.5c-0.1-0.1-0.3-0.2-0.6-0.3c-0.3-0.1-0.6-0.2-1-0.3c-0.4-0.1-0.8-0.2-1.3-0.2
						c-0.4,0-0.9,0-1.3,0c-0.8,0.1-1.3,0.3-1.7,0.7c-0.4,0.3-0.5,0.8-0.4,1.3c0.1,0.4,0.2,0.7,0.5,0.9c0.3,0.2,0.7,0.3,1.2,0.4
						c0.5,0.1,1.2,0.2,2,0.3c1,0.1,1.9,0.3,2.7,0.5c0.8,0.2,1.4,0.6,1.9,1.1c0.5,0.5,0.8,1.2,0.9,2.1c0.1,0.8,0.1,1.4-0.1,2
						c-0.2,0.6-0.6,1.1-1,1.5c-0.5,0.4-1,0.8-1.7,1c-0.7,0.3-1.4,0.4-2.1,0.5c-0.8,0.1-1.5,0.1-2.3,0.1c-0.8-0.1-1.5-0.2-2.3-0.4
						c-0.7-0.2-1.4-0.5-2.1-0.8c0.3-0.9,0.7-1.7,1-2.6c0.1,0.1,0.4,0.2,0.7,0.4c0.4,0.2,0.8,0.3,1.3,0.4c0.5,0.1,1,0.2,1.6,0.3
						c0.6,0.1,1.1,0.1,1.7,0c0.8-0.1,1.4-0.3,1.8-0.6c0.4-0.3,0.5-0.7,0.4-1.2c-0.1-0.4-0.3-0.8-0.6-1c-0.4-0.2-0.8-0.4-1.4-0.5
						c-0.6-0.1-1.3-0.2-2.1-0.3c-1-0.1-1.8-0.3-2.5-0.6c-0.7-0.2-1.2-0.6-1.6-1c-0.4-0.4-0.6-1-0.7-1.8c-0.1-1,0-1.9,0.4-2.6
						c0.4-0.7,1-1.3,1.8-1.8c0.8-0.5,1.6-0.7,2.6-0.9c0.7-0.1,1.3-0.1,2,0c0.6,0.1,1.2,0.2,1.8,0.3c0.6,0.2,1.1,0.4,1.6,0.6
						C289,229.8,288.7,230.7,288.4,231.5z"/>
				</g>
			</g>
		</g>
		<path class="st32" d="M289.8,25.7c0,0,0,0.2-0.1,0.5C289.8,25.9,289.8,25.7,289.8,25.7z"/>
		<path class="st33" d="M295.2,38.5c0,0-0.1,9.3-4.1,14.4l-0.2-6.8c0,0-7.7,5.2-11.2,4.3c0,0,2.6-2.6,2.6-5.2c0,0-18.1,8.6-37,9.5
			c-18.9,0.9-26.7-1.7-28.4-2.6c-1.7-0.9,6.9,20.6,4.3,28.4L217,89l-0.6,0.7c-2-9.1-11.1-14.9-16.2-14.9c-1.8,0-3.3,0.5-4.5,1.4
			l-0.2-0.1c0,0-6-20.6-6-22.4c0,0,1.7,1.7,1.7,0.9l-1.7-2.6c0,0,0.6-1.9,1.7-4.5c0.3,0.1,4-10.5,27.5-7.8c0,0,16.4,0.9,23.5-0.7
			c14.8-3.4,28.2-6.7,28.2-6.7s-6.7,4-11.4,8.7c0,0,12.1-0.7,21.5-6.7c7-4.5,8.8-7.1,9.2-8.2c-0.7,2.3-3.5,11.3-5.2,14.2
			C282.4,43.8,295.2,38.5,295.2,38.5z"/>
		<path class="st32" d="M287.6,18.1C287.6,18.1,287.5,18.1,287.6,18.1C287.5,18.1,287.5,18.1,287.6,18.1
			C287.6,18.1,287.6,18.1,287.6,18.1z"/>
	</g>
</g>
</svg>
