<?xml version="1.0" encoding="utf-8"?>
<!-- Generator: Adobe Illustrator 23.0.5, SVG Export Plug-In . SVG Version: 6.00 Build 0)  -->
<svg version="1.1" id="Layer_3" xmlns="http://www.w3.org/2000/svg" xmlns:xlink="http://www.w3.org/1999/xlink" x="0px" y="0px"
	 viewBox="0 0 155.2 41.6" style="enable-background:new 0 0 155.2 41.6;" xml:space="preserve">
<style type="text/css">
	.st0{fill:#FFFFFF;}
	.st1{fill:#5E5E5E;}
	.st2{fill:#777777;}
	.st3{fill:#282828;}
	.st4{fill:#335A7C;}
	.st5{fill:#DDDDDD;}
	.st6{opacity:0.32;fill:#383838;}
</style>
<title>logo</title>
<path class="st0" d="M19.2,30.4c-1.1,0-2.3-0.2-3.3-0.6c-1.9-0.8-3.4-2.4-4.1-4.3c-0.4-1.1-0.6-2.2-0.5-3.3c0-1.6,0.3-3.2,1-4.6
	c0.6-1.4,1.5-2.7,2.6-3.8c1.1-1.1,2.5-2,3.9-2.6c1.5-0.7,3.2-1,4.9-1c1.8-0.1,3.6,0.4,5.1,1.4c1.3,1,2,2.5,1.9,4.1
	c0,4.2-3.8,6.3-11.3,6.3h-1.4c-0.5,0-1,0-1.5-0.1v0.5c-0.1,1.1,0.3,2.3,0.9,3.2c0.7,0.9,1.7,1.3,2.8,1.2c1,0,2-0.2,2.8-0.7
	c0.9-0.5,1.6-1.1,2.1-2l4,1.2c-0.5,0.8-1.1,1.5-1.8,2.1c-0.7,0.6-1.5,1.2-2.4,1.6C23.9,29.4,23,29.8,22,30
	C21.1,30.3,20.1,30.4,19.2,30.4z M22.8,13.7c-0.7,0-1.4,0.1-2,0.4c-0.6,0.3-1.2,0.6-1.7,1.1c-0.5,0.5-0.9,1-1.3,1.6
	c-0.4,0.6-0.7,1.2-0.9,1.9c0.4,0,0.8,0,1.2,0h1.2c1,0,2-0.1,3-0.2c0.7-0.1,1.4-0.3,2-0.6c0.4-0.2,0.8-0.5,1.1-0.9
	c0.2-0.3,0.3-0.8,0.3-1.2c0-0.7-0.3-1.3-0.8-1.6C24.3,13.9,23.5,13.7,22.8,13.7L22.8,13.7L22.8,13.7z"/>
<g>
	<path class="st1" d="M74.9,20.6c0,4.1-1.3,7.3-3.8,9.4s-6.2,3.3-11,3.3h-7.7v-25H61c4.4,0,7.9,1.1,10.3,3.2
		C73.7,13.7,74.9,16.7,74.9,20.6z M69,20.7c0-5.4-2.6-8-7.7-8h-3.1v16.3h2.5C66.2,28.9,69,26.2,69,20.7z"/>
	<path class="st1" d="M129,33.3v-25h5.7v25H129z"/>
	<path class="st1" d="M155.2,26.2c0,2.2-0.9,3.9-2.6,5.2c-1.7,1.3-4.1,1.9-7.1,1.9c-2.8,0-5.3-0.5-7.5-1.5v-4.8
		c1.8,0.7,3.3,1.2,4.5,1.5c1.2,0.3,2.4,0.4,3.4,0.4c1.2,0,2.2-0.2,2.8-0.6c0.7-0.4,1-1.1,1-1.9c0-0.5-0.1-0.9-0.4-1.3
		c-0.3-0.4-0.7-0.7-1.3-1.1c-0.6-0.3-1.7-0.9-3.4-1.6c-1.6-0.7-2.8-1.4-3.6-2c-0.8-0.6-1.4-1.4-1.9-2.2c-0.5-0.9-0.7-1.8-0.7-3
		c0-2.1,0.8-3.8,2.4-5.1c1.6-1.2,3.8-1.8,6.5-1.8c1.4,0,2.7,0.1,3.9,0.4c1.2,0.3,2.5,0.7,3.9,1.3l-1.8,4c-1.4-0.5-2.6-0.9-3.5-1.1
		c-0.9-0.2-1.8-0.3-2.7-0.3c-1.1,0-1.9,0.2-2.4,0.7c-0.6,0.5-0.8,1-0.8,1.8c0,0.5,0.1,0.8,0.3,1.2c0.2,0.3,0.6,0.7,1.1,1
		c0.5,0.3,1.7,0.9,3.5,1.7c2.5,1.1,4.1,2.2,5.1,3.3C154.8,23.3,155.2,24.6,155.2,26.2z"/>
	<path class="st1" d="M118.1,28.6h-10.8l-2,4.7h-5.7l9.1-21c1-2.4,3.5-4,6.3-4h0l10.8,25h-5.7L118.1,28.6z M116.1,24.2l-3.4-7.9
		l-3.4,7.9H116.1z"/>
	<g>
		<g>
			<path class="st2" d="M89,13.2l1.8-4.2c-4.6-2-9.9,0.1-11.9,4.7c-1.6,3.8,0.2,14.8,0.9,18.7c0.1,0.3,0.3,0.6,0.6,0.7l5-11.7
				c-2.3-1-3.4-3.7-2.4-6C84.1,13.3,86.7,12.3,89,13.2z"/>
			<path class="st1" d="M95.5,21c-1.6,3.8-10.9,10-14.3,12.1c-0.3,0.2-0.6,0.2-0.9,0.1l5-11.7c2.3,1,5-0.1,6-2.4c1-2.3-0.1-5-2.4-6
				l1.8-4.2C95.4,11.1,97.5,16.4,95.5,21z"/>
		</g>
		<path class="st1" d="M95.8,33.3h-5.9l-1.8-4.1c1.5-1.1,3.1-2.3,4.4-3.5L95.8,33.3z"/>
	</g>
</g>
<rect x="-126.6" y="20.3" class="st3" width="52.1" height="34.8"/>
<path class="st4" d="M25.5,40.3C14.3,47.6-1.6,22.2,0.1,14.5C1.6,8.1,25.2,2.1,33.5,0.1c1.7-0.4,3.5,0.3,4.2,1.5
	C41.2,7.7,48.4,25.4,25.5,40.3z"/>
<g>
	<g>
		<g>
			<path class="st5" d="M22.9,15.2l1.4-3.2c-3.5-1.5-7.6,0.1-9.1,3.6C14,18.5,15.4,27,15.9,29.9c0,0.3,0.2,0.4,0.4,0.5l3.8-8.9
				c-1.8-0.8-2.6-2.8-1.8-4.5C19.1,15.3,21.2,14.5,22.9,15.2z"/>
			<path class="st0" d="M27.9,21.1c-1.2,2.9-8.3,7.6-10.9,9.3c-0.2,0.1-0.5,0.1-0.7,0.1l3.8-8.9c1.8,0.8,3.8-0.1,4.5-1.8
				c0.8-1.8-0.1-3.8-1.8-4.5l1.4-3.2C27.8,13.6,29.4,17.6,27.9,21.1z"/>
		</g>
		<g>
			<g>
				<g>
					<g>
						<path class="st0" d="M17.4,11.9c-0.1,0.1-0.2,0.1-0.3,0.2c-1.2,0.8-2.1,1.9-2.7,3.3c-0.3,0.7-0.5,1.7-0.5,3.1
							c0,0.1,0,0.1,0,0.2l0,0.2c0,0.1-0.1,0.2-0.2,0.1l-8.5-3.7L0.1,13C0,13,0,12.9,0,12.9l3.1-7.2c0-0.1,0.1-0.1,0.2-0.1L15.9,11
							l1.5,0.7C17.5,11.7,17.5,11.8,17.4,11.9z"/>
					</g>
					
						<rect x="1.7" y="7.5" transform="matrix(0.9182 0.3961 -0.3961 0.9182 4.8461 -1.3887)" class="st5" width="8.1" height="7.1"/>
					<path class="st5" d="M16.3,11.7c0.2,0.1,0.3,0.4,0.1,0.6c-0.9,0.8-1.7,1.8-2.2,3c-0.3,0.7-0.5,1.5-0.5,2.6
						c0,0.2-0.3,0.4-0.5,0.3l-4.3-1.9c-0.2-0.1-0.2-0.3-0.2-0.4l1.4-3.2l0.4-0.8l0.8-1.9c0.1-0.2,0.3-0.2,0.4-0.2L16.3,11.7z"/>
				</g>
				<g>
					<g>
						<path class="st0" d="M43.5,22.9l-3.2,7.5l-9.3-4l-4.5-1.9c-0.1,0-0.1-0.2,0-0.2c0,0,0.1-0.1,0.1-0.1c0,0,0.1-0.1,0.1-0.1
							c1-1,1.6-1.8,1.9-2.5c0.4-1,0.6-2,0.6-3c0-0.4,0-0.8-0.1-1.2c0-0.1,0-0.2-0.1-0.3c0-0.1,0.1-0.2,0.2-0.1l12.4,5.4L43.5,22.9z"
							/>
					</g>
					
						<rect x="33.7" y="21.3" transform="matrix(-0.9182 -0.3961 0.3961 -0.9182 62.517 62.5816)" class="st5" width="8.1" height="7.1"/>
					<path class="st5" d="M34.9,19.8C34.9,19.8,34.9,19.8,34.9,19.8L34,21.9l-0.4,0.8l-1.5,3.5c0,0,0,0,0,0l-4.6-2
						c-0.2-0.1-0.3-0.4-0.1-0.5c0.8-0.8,1.3-1.5,1.5-2.2c0.4-1,0.6-2,0.7-3.1c0-0.2,0-0.3,0-0.5c0-0.2,0.2-0.4,0.5-0.3L34.9,19.8z"
						/>
				</g>
			</g>
		</g>
	</g>
	<path class="st6" d="M41.7,22.1L31,26.4l-4.5-1.9c-0.1,0-0.1-0.2,0-0.2c0,0,0.1-0.1,0.1-0.1c0,0,0.1-0.1,0.1-0.1
		c1-1,1.6-1.8,1.9-2.5c0.4-1,0.6-2,0.6-3c0-0.4,0-0.8-0.1-1.2c0-0.1,0-0.2-0.1-0.3c0-0.1,0.1-0.2,0.2-0.1L41.7,22.1z"/>
	<path class="st6" d="M15.9,11L5.2,15.3L0.1,13C0,13,0,12.9,0,12.9l3.1-7.2c0-0.1,0.1-0.1,0.2-0.1L15.9,11z"/>
</g>
</svg>
