<?xml version="1.0" encoding="utf-8"?>
<!-- Generator: Adobe Illustrator 23.0.5, SVG Export Plug-In . SVG Version: 6.00 Build 0)  -->
<svg version="1.1" id="Layer_1" xmlns="http://www.w3.org/2000/svg" xmlns:xlink="http://www.w3.org/1999/xlink" x="0px" y="0px"
	 viewBox="0 0 200 200" style="enable-background:new 0 0 200 200;" xml:space="preserve">
<style type="text/css">
	.st0{fill:#1F3F5E;}
</style>
<title>services-icon-1</title>
<g>
	<g>
		<path class="st0" d="M200,68.1c0-3-0.9-6.1-2.9-8.7l-15.8-20.3c-2.7-3.4-6.7-5.1-10.7-5.1c-2.4,0-4.8,0.6-7,2l-15.5,9.6
			c-1.6,1-4.4,1.7-7.1,1.7c-2.1,0-4.1-0.4-5.4-1.1L120.4,39c-2.4-1.2-5.2-1.7-7.9-1.7c-3.9,0-7.9,1-11.1,3.2l-1.8,1.2
			c-1.4-0.7-3.6-1.8-6-3c-2.9-1.4-6.4-2-9.9-2c-3.1,0-6.3,0.5-9,1.7l-10.3,4.4c-1.7,0.7-4.3,1.2-7,1.2c-2.7,0-5.3-0.5-7-1.2
			l-10.3-4.4c-1.9-0.8-3.9-1.1-5.9-1.1c-2.3,0-4.6,0.5-6.7,1.3c-2.1,0.9-4.1,2.1-5.6,3.9l-18.8,21C1,65.8,0,68.8,0,71.6
			c0,3.4,1.5,6.9,4.3,9.3l17.5,14.9l-8.3,8.7c-2.3,2.4-3.4,5.5-3.4,8.6c0,3.3,1.3,6.6,3.9,9l1.7,1.6c1.6,1.5,3.5,2.5,5.5,3
			c-1,1.8-1.5,3.9-1.5,5.9c0,3.3,1.3,6.6,3.9,9l0,0l1.7,1.6c2.4,2.3,5.5,3.4,8.6,3.4c1.7,0,3.3-0.3,4.9-1c0.5,2.2,1.7,4.3,3.4,6
			l1.7,1.6c2.4,2.3,5.5,3.4,8.6,3.4c2.4,0,4.8-0.7,6.9-2.1c0.6,2,1.7,3.8,3.2,5.3l1.7,1.6c2.4,2.3,5.5,3.4,8.6,3.4
			c3.3,0,6.6-1.3,9-3.8l7.3-7.7l10,9.2c2.4,2.2,5.5,3.3,8.5,3.3c3.3,0,6.7-1.3,9.1-3.9l1.6-1.7c1.4-1.5,2.3-3.2,2.8-5l3.9,3.6
			c2.4,2.2,5.5,3.3,8.5,3.3c3.3,0,6.7-1.3,9.1-4l1.6-1.7c1.8-2,2.9-4.4,3.2-6.8c1,0.3,2.1,0.4,3.1,0.4c3.3,0,6.7-1.3,9.1-3.9
			l1.6-1.7c2.2-2.4,3.3-5.4,3.3-8.4c0-0.9-0.1-1.9-0.3-2.8c2.8-0.4,5.4-1.6,7.5-3.8l1.6-1.7c2.2-2.4,3.3-5.4,3.3-8.4
			c0-3.3-1.3-6.7-4-9.1l-3-2.8l26.9-29.7C198.9,75,200,71.5,200,68.1z M24.2,120.3c-1.4,0-2.8-0.5-3.9-1.5l-1.7-1.6
			c-1.2-1.1-1.7-2.6-1.8-4.1c0-1.4,0.5-2.8,1.6-3.9l17-17.8c1.1-1.2,2.6-1.7,4.1-1.7c1.4,0,2.8,0.5,3.9,1.5l1.7,1.6
			c0,0,1.7,2.6,1.7,4.1c0,1.1-0.3,2.2-1,3.2c-0.1,0.1-18.4,19.1-18.4,19.1C26.5,120,25.4,120.3,24.2,120.3z M37.8,138.1
			c-1.1,1.2-2.6,1.7-4.1,1.7c-1.4,0-2.8-0.5-3.9-1.5l-1.7-1.6l0,0c-1.2-1.1-1.7-2.6-1.7-4.1c0-1.4,0.5-2.8,1.5-3.9
			c0,0,22.7-23.6,22.9-23.8c1.1-1,2.5-1.6,3.9-1.6c1.4,0,2.8,0.5,3.9,1.5l1.7,1.6c1.2,1.1,1.7,2.6,1.7,4.1c0,1.4-0.5,2.8-1.6,3.9
			L37.8,138.1z M56.4,148.1c-1.1,1.2-2.6,1.7-4.1,1.7c-1.4,0-2.8-0.5-3.9-1.5l-1.7-1.6c-1.2-1.1-1.7-2.6-1.7-4.1
			c0-1.3,0.4-2.5,1.3-3.5L62,122.6c1.1-1,2.4-1.5,3.8-1.5c1.4,0,2.8,0.5,3.9,1.5l1.7,1.6c1.2,1.1,1.7,2.6,1.7,4.1
			c0,1.4-0.5,2.8-1.6,3.9L56.4,148.1z M86.4,146.4l-9.6,10c-1.1,1.2-2.6,1.7-4.1,1.7c-1.4,0-2.8-0.5-3.9-1.5l-1.7-1.6
			c-1.2-1.1-1.7-2.6-1.7-4.1c0-1.4,0.5-2.8,1.6-3.9l9.6-10c1.1-1.2,2.6-1.7,4.1-1.7c1.4,0,2.8,0.5,3.9,1.5l1.7,1.6
			c1.2,1.1,1.7,2.6,1.7,4.1C88,143.9,87.5,145.3,86.4,146.4z M169.7,119.2c0,1.4-0.5,2.8-1.5,3.8l-1.6,1.7c-1.1,1.2-2.6,1.8-4.2,1.8
			c-1.4,0-2.8-0.5-3.9-1.5l-26.8-24.8l-4.6,5l28.7,26.5c1.2,1.1,1.8,2.6,1.8,4.1c0,1.4-0.5,2.8-1.5,3.8l-1.6,1.7
			c-1.1,1.2-2.6,1.8-4.2,1.8c-1.4,0-2.8-0.5-3.8-1.5L119.8,117l-4.6,5l23.8,22c1.1,1.1,1.7,2.6,1.7,4.1c0,1.4-0.5,2.8-1.5,3.8
			l-1.6,1.7c-1.1,1.2-2.6,1.8-4.2,1.8c-1.4,0-2.8-0.5-3.9-1.5l-23.7-21.9h0l0,0l-4.6,5l0,0l0.1,0.1l11.9,11c1.1,1.1,1.6,2.5,1.6,3.9
			c0,1.4-0.5,2.7-1.5,3.8l-1.6,1.7c-1.1,1.2-2.6,1.8-4.1,1.8c-1.4,0-2.8-0.5-3.8-1.5l-10.3-9.6c0.9-1.8,1.4-3.7,1.4-5.6
			c0-3.3-1.3-6.5-3.9-9l-1.7-1.6c-2.4-2.3-5.5-3.4-8.6-3.4c-0.2,0-0.5,0.1-0.7,0.1c0-0.1,0-0.1,0-0.2c0-3.3-3.9-9-3.9-9l-1.7-1.6
			c-1.8-1.7-4-2.8-6.3-3.2c0.5-1.3,0.7-2.7,0.7-4.1c0-3.3-1.3-6.6-3.9-9l-1.7-1.6c-2.4-2.3-5.5-3.4-8.6-3.4c-0.4,0-0.7,0.1-1.1,0.1
			c-0.1-3.1-1.4-6.3-3.8-8.6v0l-1.7-1.6c-2.4-2.3-5.5-3.4-8.6-3.4c-3.3,0-6.6,1.3-9,3.8l-4,4.2L8.7,75.8c-1.3-1.1-1.9-2.6-1.9-4.2
			c0-1.3,0.4-2.6,1.4-3.6L27,47c0.7-0.8,1.8-1.6,3.1-2.1c1.3-0.5,2.8-0.8,4.1-0.8c1.2,0,2.3,0.2,3.2,0.6L47.8,49
			c2.9,1.2,6.3,1.7,9.7,1.7c3.4,0,6.8-0.5,9.7-1.7l10.3-4.4c1.6-0.7,4-1.1,6.4-1.1c2.6,0,5.3,0.5,6.8,1.3c1,0.5,1.9,0.9,2.8,1.4
			l-10.5,7.4c-3.4,2.4-5.2,6.2-5.2,10c0,2.5,0.8,5.1,2.4,7.3l0,0l1.4,1.9c2.6,3.5,6.7,5.3,10.9,5.3c2.3,0,4.7-0.6,6.8-1.8l6.3-3.8
			c1.3-0.8,3.2-1.3,5.2-1.3c2.4,0,4.7,0.7,6.1,1.7l17.4,12.5c3.9,2.8,10.2,7.9,13.7,11.2l20.1,18.6
			C169.1,116.2,169.7,117.7,169.7,119.2z M191.4,73.1l-26.8,29.7l-12.2-11.3c-3.8-3.5-10.1-8.7-14.3-11.7l-17.4-12.5
			c-2.9-2.1-6.6-3-10.1-3c-3,0-6.1,0.7-8.7,2.2l-6.3,3.8c-1,0.6-2.1,0.9-3.3,0.9c-2.1,0-4.2-1-5.4-2.6l-1.4-1.9l0,0
			c-0.7-1-1.1-2.1-1.1-3.2c0-1.7,0.8-3.4,2.3-4.4l18.6-13.1c1.6-1.2,4.5-2,7.2-2c1.9,0,3.7,0.4,4.9,1l15.1,7.3
			c2.6,1.2,5.5,1.7,8.4,1.8c3.8,0,7.6-0.8,10.7-2.8l15.5-9.6c1-0.6,2.2-0.9,3.4-0.9c2.1,0,4.2,0.9,5.4,2.5l15.8,20.3
			c0.9,1.2,1.4,2.8,1.4,4.5C193.2,70,192.5,71.9,191.4,73.1z"/>
	</g>
</g>
</svg>
