<?xml version="1.0" encoding="utf-8"?>
<!-- Generator: Adobe Illustrator 23.0.5, SVG Export Plug-In . SVG Version: 6.00 Build 0)  -->
<svg version="1.1" id="Layer_1" xmlns="http://www.w3.org/2000/svg" xmlns:xlink="http://www.w3.org/1999/xlink" x="0px" y="0px"
	 viewBox="0 0 200 200" style="enable-background:new 0 0 200 200;" xml:space="preserve">
<style type="text/css">
	.st0{fill:#1F3F5E;stroke:#1F3F5E;stroke-miterlimit:10;}
</style>
<title>services-icon-1</title>
<g>
	<g>
		<g>
			<path class="st0" d="M130.8,69.8c-0.1-1.5-1.5-2.7-3-2.6c-8.9,0.7-18.2,1.1-27.8,1.1c-22.7,0-43.9-2-59.7-5.7
				c-1.5-0.4-3,0.6-3.4,2.1c-0.4,1.5,0.6,3,2.1,3.4c16.2,3.8,37.8,5.9,60.9,5.9c9.7,0,19.2-0.4,28.2-1.1
				C129.7,72.7,130.9,71.3,130.8,69.8z"/>
		</g>
	</g>
	<g>
		<g>
			<path class="st0" d="M130.8,117.7c-0.1-1.5-1.5-2.7-3-2.6c-8.9,0.7-18.2,1.1-27.8,1.1c-22.7,0-43.9-2-59.7-5.7
				c-1.5-0.4-3,0.6-3.4,2.1c-0.4,1.5,0.6,3,2.1,3.4c16.2,3.8,37.8,5.9,60.9,5.9c9.7,0,19.2-0.4,28.2-1.1
				C129.7,120.6,130.9,119.2,130.8,117.7z"/>
		</g>
	</g>
	<g>
		<g>
			<path class="st0" d="M188,26.6C187.4,13.2,151.2,8,135.6,6.4c-4.8-0.5-9.9-0.9-15-1.2c-6.7-0.4-13.6-0.6-20.5-0.6
				c-17.8,0-34.8,1.2-49.4,3.6c-1.5,0.2-2.6,1.7-2.3,3.2c0.2,1.5,1.7,2.6,3.2,2.3c14.2-2.3,31-3.5,48.5-3.5c6.8,0,13.6,0.2,20.2,0.6
				c5.1,0.3,10,0.7,14.8,1.2c14.5,1.5,26.7,3.9,35.4,6.9c11.5,4,12,7.4,12,8.1c0,2.2-4.8,7-22.8,11.1c-0.5,0.1-1,0.2-1.5,0.3
				c-15.7,3.4-36.3,5.3-58.1,5.3s-42.4-1.9-58.1-5.3c-0.5-0.1-1-0.2-1.5-0.3c-17.8-4.1-22.7-8.8-22.8-11c0,0,0,0,0-0.1
				c0,0,0,0,0-0.1c0-1.3,1.6-3,4.4-4.6c3.5-2,8.6-3.9,15.2-5.6c1.5-0.4,2.4-1.9,2-3.4c-0.4-1.5-1.9-2.4-3.4-2
				C20,15.2,12,20.5,12,26.9v146.2c0,6.8,9.1,12.4,27.1,16.5c16.3,3.7,37.9,5.8,60.9,5.8s44.6-2.1,60.9-5.8
				c18-4.1,27.1-9.7,27.1-16.5v-146c0,0,0-0.1,0-0.1C188,26.8,188,26.7,188,26.6z M159.6,184.2c-15.9,3.6-37.1,5.7-59.6,5.7
				s-43.7-2-59.6-5.7c-18-4.1-22.8-8.9-22.8-11.1v-40.2c0.1,0,0.1,0.1,0.2,0.1c0.2,0.1,0.3,0.2,0.5,0.3c0.1,0.1,0.3,0.2,0.4,0.2
				c0.2,0.1,0.3,0.2,0.5,0.3c0.1,0.1,0.3,0.2,0.4,0.2c0.2,0.1,0.4,0.2,0.6,0.3c0.1,0.1,0.3,0.2,0.4,0.2c0.2,0.1,0.4,0.2,0.6,0.3
				c0.1,0.1,0.3,0.1,0.4,0.2c0.3,0.1,0.5,0.3,0.8,0.4c0.1,0,0.2,0.1,0.3,0.1c0.4,0.2,0.7,0.3,1.1,0.5c0.1,0.1,0.2,0.1,0.4,0.2
				c0.3,0.1,0.5,0.2,0.8,0.3c0.2,0.1,0.3,0.1,0.5,0.2c0.3,0.1,0.5,0.2,0.8,0.3c0.2,0.1,0.4,0.1,0.5,0.2c0.3,0.1,0.5,0.2,0.8,0.3
				c0.2,0.1,0.4,0.1,0.6,0.2c0.3,0.1,0.5,0.2,0.8,0.3c0.2,0.1,0.4,0.1,0.6,0.2c0.3,0.1,0.5,0.2,0.8,0.3c0.2,0.1,0.4,0.1,0.6,0.2
				c0.3,0.1,0.6,0.2,0.9,0.3c0.2,0.1,0.4,0.1,0.7,0.2c0.3,0.1,0.6,0.2,0.9,0.3c0.2,0.1,0.4,0.1,0.7,0.2c0.3,0.1,0.7,0.2,1,0.3
				c0.2,0.1,0.4,0.1,0.6,0.2c0.4,0.1,0.8,0.2,1.1,0.3c0.2,0,0.4,0.1,0.5,0.1c0.6,0.1,1.2,0.3,1.7,0.4c16.3,3.7,37.9,5.8,60.9,5.8
				s44.6-2.1,60.9-5.8c0.6-0.1,1.2-0.3,1.7-0.4c0.2,0,0.4-0.1,0.5-0.1c0.4-0.1,0.8-0.2,1.1-0.3c0.2-0.1,0.4-0.1,0.6-0.2
				c0.3-0.1,0.7-0.2,1-0.3c0.2-0.1,0.4-0.1,0.7-0.2c0.3-0.1,0.6-0.2,0.9-0.3c0.2-0.1,0.4-0.1,0.7-0.2c0.3-0.1,0.6-0.2,0.9-0.3
				c0.2-0.1,0.4-0.1,0.6-0.2c0.3-0.1,0.5-0.2,0.8-0.3c0.2-0.1,0.4-0.1,0.6-0.2c0.3-0.1,0.5-0.2,0.8-0.3c0.2-0.1,0.4-0.1,0.6-0.2
				c0.3-0.1,0.5-0.2,0.8-0.3c0.2-0.1,0.4-0.1,0.5-0.2c0.3-0.1,0.5-0.2,0.8-0.3c0.2-0.1,0.3-0.1,0.5-0.2c0.3-0.1,0.6-0.2,0.8-0.3
				c0.1-0.1,0.3-0.1,0.4-0.2c0.4-0.2,0.8-0.3,1.1-0.5c0.1,0,0.2-0.1,0.3-0.1c0.3-0.1,0.5-0.3,0.8-0.4c0.1-0.1,0.3-0.1,0.4-0.2
				c0.2-0.1,0.4-0.2,0.6-0.3c0.1-0.1,0.3-0.2,0.4-0.2c0.2-0.1,0.4-0.2,0.6-0.3c0.1-0.1,0.3-0.2,0.4-0.2c0.2-0.1,0.3-0.2,0.5-0.3
				c0.1-0.1,0.3-0.2,0.4-0.2c0.2-0.1,0.3-0.2,0.5-0.3c0.1,0,0.1-0.1,0.2-0.1v40.2h0C182.4,175.3,177.6,180,159.6,184.2z M182.3,125
				c-0.9,2.4-6.3,6.7-22.6,10.4c-15.9,3.6-37.1,5.7-59.6,5.7s-43.7-2-59.6-5.7c-16.3-3.7-21.8-8-22.6-10.4c-0.1-0.2-0.1-0.5-0.1-0.7
				V84.1c0.1,0,0.1,0.1,0.2,0.1c0.2,0.1,0.3,0.2,0.5,0.3c0.1,0.1,0.2,0.2,0.4,0.2c0.2,0.1,0.3,0.2,0.5,0.3c0.1,0.1,0.3,0.2,0.4,0.2
				c0.2,0.1,0.4,0.2,0.6,0.3c0.1,0.1,0.3,0.1,0.4,0.2c0.2,0.1,0.4,0.2,0.6,0.3c0.1,0.1,0.3,0.1,0.4,0.2c0.3,0.1,0.5,0.3,0.8,0.4
				c0.1,0,0.2,0.1,0.3,0.1c0.4,0.2,0.7,0.3,1.1,0.5c0.1,0.1,0.3,0.1,0.4,0.2c0.3,0.1,0.5,0.2,0.8,0.3c0.2,0.1,0.3,0.1,0.5,0.2
				c0.2,0.1,0.5,0.2,0.7,0.3c0.2,0.1,0.4,0.1,0.6,0.2c0.2,0.1,0.5,0.2,0.8,0.3c0.2,0.1,0.4,0.1,0.6,0.2c0.3,0.1,0.5,0.2,0.8,0.3
				c0.2,0.1,0.4,0.1,0.6,0.2c0.3,0.1,0.5,0.2,0.8,0.3c0.2,0.1,0.4,0.1,0.6,0.2c0.3,0.1,0.6,0.2,0.9,0.3c0.2,0.1,0.4,0.1,0.7,0.2
				c0.3,0.1,0.6,0.2,0.9,0.3c0.2,0.1,0.4,0.1,0.7,0.2c0.3,0.1,0.7,0.2,1,0.3c0.2,0.1,0.4,0.1,0.6,0.2c0.4,0.1,0.8,0.2,1.1,0.3
				c0.2,0,0.4,0.1,0.5,0.1c0.6,0.1,1.2,0.3,1.7,0.4C55.4,95.9,77,98,100,98s44.6-2.1,60.9-5.8c0.6-0.1,1.2-0.3,1.7-0.4
				c0.2,0,0.4-0.1,0.5-0.1c0.4-0.1,0.8-0.2,1.1-0.3c0.2-0.1,0.4-0.1,0.6-0.2c0.3-0.1,0.7-0.2,1-0.3c0.2-0.1,0.4-0.1,0.7-0.2
				c0.3-0.1,0.6-0.2,0.9-0.3c0.2-0.1,0.4-0.1,0.7-0.2c0.3-0.1,0.6-0.2,0.9-0.3c0.2-0.1,0.4-0.1,0.6-0.2c0.3-0.1,0.5-0.2,0.8-0.3
				c0.2-0.1,0.4-0.1,0.6-0.2c0.3-0.1,0.5-0.2,0.8-0.3c0.2-0.1,0.4-0.1,0.6-0.2c0.3-0.1,0.5-0.2,0.8-0.3c0.2-0.1,0.4-0.1,0.6-0.2
				c0.3-0.1,0.5-0.2,0.7-0.3c0.2-0.1,0.3-0.1,0.5-0.2c0.3-0.1,0.5-0.2,0.8-0.3c0.1-0.1,0.3-0.1,0.4-0.2c0.4-0.2,0.8-0.3,1.1-0.5
				c0.1,0,0.2-0.1,0.3-0.1c0.3-0.1,0.5-0.2,0.8-0.4c0.1-0.1,0.3-0.1,0.4-0.2c0.2-0.1,0.4-0.2,0.6-0.3c0.1-0.1,0.3-0.1,0.4-0.2
				c0.2-0.1,0.4-0.2,0.6-0.3c0.1-0.1,0.3-0.2,0.4-0.2c0.2-0.1,0.3-0.2,0.5-0.3c0.1-0.1,0.3-0.2,0.4-0.2c0.2-0.1,0.3-0.2,0.5-0.3
				c0.1,0,0.1-0.1,0.2-0.1v40.2h0C182.4,124.6,182.3,124.8,182.3,125z M159.6,86.7c-15.9,3.6-37.1,5.7-59.6,5.7s-43.7-2-59.6-5.7
				c-18-4.1-22.8-8.9-22.8-11.1V35.4c0.1,0,0.1,0.1,0.2,0.1c0.2,0.1,0.3,0.2,0.5,0.3c0.1,0.1,0.2,0.2,0.4,0.2
				c0.2,0.1,0.3,0.2,0.5,0.3c0.1,0.1,0.3,0.2,0.4,0.2c0.2,0.1,0.4,0.2,0.6,0.3c0.1,0.1,0.3,0.1,0.4,0.2c0.2,0.1,0.4,0.2,0.6,0.3
				c0.1,0.1,0.3,0.1,0.4,0.2c0.3,0.1,0.5,0.3,0.8,0.4c0.1,0,0.2,0.1,0.3,0.1c0.4,0.2,0.7,0.3,1.1,0.5c0.1,0.1,0.3,0.1,0.4,0.2
				c0.3,0.1,0.5,0.2,0.8,0.3c0.2,0.1,0.3,0.1,0.5,0.2c0.2,0.1,0.5,0.2,0.7,0.3c0.2,0.1,0.4,0.1,0.6,0.2c0.2,0.1,0.5,0.2,0.8,0.3
				c0.2,0.1,0.4,0.1,0.6,0.2c0.3,0.1,0.5,0.2,0.8,0.3c0.2,0.1,0.4,0.1,0.6,0.2c0.3,0.1,0.5,0.2,0.8,0.3c0.2,0.1,0.4,0.1,0.6,0.2
				c0.3,0.1,0.6,0.2,0.9,0.3c0.2,0.1,0.4,0.1,0.7,0.2c0.3,0.1,0.6,0.2,0.9,0.3c0.2,0.1,0.4,0.1,0.7,0.2c0.3,0.1,0.7,0.2,1,0.3
				c0.2,0.1,0.4,0.1,0.6,0.2c0.4,0.1,0.8,0.2,1.1,0.3c0.2,0,0.4,0.1,0.5,0.1c0.6,0.1,1.2,0.3,1.7,0.4c16.3,3.7,37.9,5.8,60.9,5.8
				s44.6-2.1,60.9-5.8c0.6-0.1,1.2-0.3,1.7-0.4c0.2,0,0.4-0.1,0.5-0.1c0.4-0.1,0.8-0.2,1.1-0.3c0.2-0.1,0.4-0.1,0.6-0.2
				c0.3-0.1,0.7-0.2,1-0.3c0.2-0.1,0.4-0.1,0.7-0.2c0.3-0.1,0.6-0.2,0.9-0.3c0.2-0.1,0.4-0.1,0.7-0.2c0.3-0.1,0.6-0.2,0.9-0.3
				c0.2-0.1,0.4-0.1,0.6-0.2c0.3-0.1,0.5-0.2,0.8-0.3c0.2-0.1,0.4-0.1,0.6-0.2c0.3-0.1,0.5-0.2,0.8-0.3c0.2-0.1,0.4-0.1,0.6-0.2
				c0.3-0.1,0.5-0.2,0.8-0.3c0.2-0.1,0.4-0.1,0.6-0.2c0.3-0.1,0.5-0.2,0.7-0.3c0.2-0.1,0.3-0.1,0.5-0.2c0.3-0.1,0.5-0.2,0.8-0.3
				c0.1-0.1,0.3-0.1,0.4-0.2c0.4-0.2,0.8-0.3,1.1-0.5c0.1,0,0.2-0.1,0.3-0.1c0.3-0.1,0.5-0.2,0.8-0.4c0.1-0.1,0.3-0.1,0.4-0.2
				c0.2-0.1,0.4-0.2,0.6-0.3c0.1-0.1,0.3-0.1,0.4-0.2c0.2-0.1,0.4-0.2,0.6-0.3c0.1-0.1,0.3-0.2,0.4-0.2c0.2-0.1,0.3-0.2,0.5-0.3
				c0.1-0.1,0.3-0.2,0.4-0.2c0.2-0.1,0.3-0.2,0.5-0.3c0.1,0,0.1-0.1,0.2-0.1v40.2h0C182.4,77.8,177.6,82.6,159.6,86.7z"/>
		</g>
	</g>
	<g>
		<g>
			<path class="st0" d="M159.4,58.5c-4.3-4.3-11.2-4.3-15.4,0c-4.3,4.3-4.3,11.2,0,15.4c2.1,2.1,4.9,3.2,7.7,3.2
				c2.8,0,5.6-1.1,7.7-3.2C163.7,69.6,163.7,62.7,159.4,58.5z M155.5,69.9c-1,1-2.3,1.6-3.8,1.6c-1.4,0-2.8-0.6-3.8-1.6
				c-1-1-1.6-2.3-1.6-3.8s0.6-2.8,1.6-3.8c1-1,2.3-1.6,3.8-1.6c1.4,0,2.8,0.6,3.8,1.6c1,1,1.6,2.3,1.6,3.8S156.5,68.9,155.5,69.9z"
				/>
		</g>
	</g>
	<g>
		<g>
			<path class="st0" d="M159.4,106.5c-4.3-4.3-11.2-4.3-15.4,0c-4.3,4.3-4.3,11.2,0,15.4c2.1,2.1,4.9,3.2,7.7,3.2
				c2.8,0,5.6-1.1,7.7-3.2C163.7,117.7,163.7,110.8,159.4,106.5z M155.5,118c-1,1-2.3,1.6-3.8,1.6c-1.4,0-2.8-0.6-3.8-1.6
				c-1-1-1.6-2.3-1.6-3.8s0.6-2.8,1.6-3.8c1-1,2.3-1.6,3.8-1.6c1.4,0,2.8,0.6,3.8,1.6c1,1,1.6,2.3,1.6,3.8S156.5,117,155.5,118z"/>
		</g>
	</g>
	<g>
		<g>
			<path class="st0" d="M159.4,154.7c-4.3-4.3-11.2-4.3-15.4,0c-4.3,4.3-4.3,11.2,0,15.4c2.1,2.1,4.9,3.2,7.7,3.2
				c2.8,0,5.6-1.1,7.7-3.2C163.7,165.8,163.7,158.9,159.4,154.7z M155.5,166.1c-1,1-2.3,1.6-3.8,1.6c-1.4,0-2.8-0.6-3.8-1.6
				c-1-1-1.6-2.3-1.6-3.8c0-1.4,0.6-2.8,1.6-3.8c1-1,2.3-1.6,3.8-1.6c1.4,0,2.8,0.6,3.8,1.6c1,1,1.6,2.3,1.6,3.8
				C157,163.8,156.5,165.1,155.5,166.1z"/>
		</g>
	</g>
	<g>
		<g>
			<path class="st0" d="M130.8,166.5c-0.1-1.5-1.5-2.7-3-2.6c-3.9,0.3-8,0.6-12,0.7c-1.5,0.1-2.7,1.4-2.7,2.9
				c0.1,1.5,1.3,2.7,2.8,2.7c0,0,0.1,0,0.1,0c4.1-0.2,8.2-0.4,12.2-0.8C129.7,169.4,130.9,168.1,130.8,166.5z"/>
		</g>
	</g>
	<g>
		<g>
			<path class="st0" d="M100.9,165.1C100.9,165.1,100.9,165.1,100.9,165.1l-0.9,0c-22.7,0-43.9-2-59.7-5.7c-1.5-0.4-3,0.6-3.4,2.1
				c-0.4,1.5,0.6,3,2.1,3.4c16.2,3.8,37.8,5.9,60.9,5.9l0.9,0c1.5,0,2.8-1.3,2.8-2.8C103.7,166.3,102.4,165.1,100.9,165.1z"/>
		</g>
	</g>
</g>
</svg>
