<?xml version="1.0" encoding="utf-8"?>
<!-- Generator: Adobe Illustrator 23.0.5, SVG Export Plug-In . SVG Version: 6.00 Build 0)  -->
<svg version="1.1" id="Layer_1" xmlns="http://www.w3.org/2000/svg" xmlns:xlink="http://www.w3.org/1999/xlink" x="0px" y="0px"
	 viewBox="0 0 200 200" style="enable-background:new 0 0 200 200;" xml:space="preserve">
<style type="text/css">
	.st0{fill:#1F3F5E;}
</style>
<title>services-icon-1</title>
<g>
	<path class="st0" d="M179,32.9L103,1.3c-1.9-0.8-4-0.8-5.9,0L21,32.9c-2.9,1.2-4.8,4-4.8,7.2v38.4c0,52.8,31.9,100.3,80.8,120.3
		c1.9,0.8,4,0.8,5.9,0c48.9-20,80.8-67.5,80.8-120.3V40C183.8,36.9,181.9,34.1,179,32.9z M168.3,78.4c0,44.9-26.4,86.2-68.3,104.7
		c-40.8-18-68.3-58.6-68.3-104.7V45.2L100,16.9l68.3,28.3V78.4z M91.4,104.5l33.3-33.3c3-3,7.9-3,11,0c3,3,3,7.9,0,11L96.9,121
		c-3,3-7.9,3-11,0L64.3,99.3c-3-3-3-7.9,0-11s7.9-3,11,0L91.4,104.5z"/>
</g>
</svg>
